<?xml version="1.0" standalone="no"?>
<!DOCTYPE svg PUBLIC "-//W3C//DTD SVG 20010904//EN"
 "http://www.w3.org/TR/2001/REC-SVG-20010904/DTD/svg10.dtd">
<svg version="1.0" xmlns="http://www.w3.org/2000/svg"
 width="261.000000pt" height="261.000000pt" viewBox="0 0 261.000000 261.000000"
 preserveAspectRatio="xMidYMid meet">
<metadata>
Created by potrace 1.14, written by Peter Selinger 2001-2017
</metadata>
<g transform="translate(0.000000,261.000000) scale(0.100000,-0.100000)"
fill="#000000" stroke="none">
<path d="M748 1949 c-9 -9 -18 -25 -20 -36 -2 -11 -12 -18 -28 -19 -44 -1 -49
-4 -44 -19 4 -10 0 -15 -11 -15 -9 0 -13 -4 -10 -10 3 -5 2 -10 -3 -10 -6 0
-12 7 -16 15 -3 8 -12 15 -21 15 -17 0 -20 -16 -5 -25 11 -7 -12 -35 -29 -35
-6 0 -11 -7 -11 -15 0 -8 -5 -15 -11 -15 -6 0 -8 8 -4 19 4 13 -2 23 -21 35
-31 21 -36 17 -39 -26 -4 -45 -14 -68 -32 -68 -8 0 -11 -4 -8 -10 9 -14 -9
-12 -23 2 -10 10 -14 10 -21 0 -4 -7 -15 -10 -25 -6 -13 5 -16 1 -14 -24 1
-16 -3 -36 -9 -44 -18 -23 -23 -58 -7 -58 8 0 14 -9 14 -21 0 -12 8 -23 20
-26 11 -3 20 -8 20 -12 -1 -16 -29 -40 -53 -46 -15 -4 -30 -11 -33 -16 -3 -5
-10 -7 -15 -4 -5 4 -9 1 -9 -4 0 -6 -7 -11 -15 -11 -8 0 -15 -7 -15 -15 0 -8
-11 -17 -25 -21 -14 -3 -25 -10 -25 -15 0 -5 -17 -7 -38 -3 -30 5 -41 2 -56
-15 -10 -11 -16 -26 -14 -33 3 -7 -1 -19 -9 -26 -13 -13 -18 -53 -14 -100 1
-14 -2 -21 -8 -18 -5 4 -12 2 -15 -3 -4 -5 -2 -12 4 -16 7 -4 7 -12 0 -25 -12
-23 -3 -50 17 -50 8 0 12 -4 8 -9 -3 -5 0 -13 5 -16 6 -4 10 -17 8 -30 -2 -13
6 -32 16 -44 17 -19 17 -21 2 -27 -25 -10 -20 -42 7 -40 17 1 23 -5 25 -26 3
-22 -1 -28 -16 -28 -19 0 -23 -10 -22 -57 0 -16 0 -41 1 -58 0 -54 8 -73 26
-70 10 2 23 4 30 4 6 1 14 10 18 21 8 24 27 22 38 -5 8 -19 9 -19 25 7 9 16
22 28 29 28 7 0 13 11 13 25 0 29 24 34 39 8 5 -11 22 -17 43 -18 36 0 78 -33
78 -61 0 -11 5 -14 18 -9 32 14 92 22 92 14 0 -14 88 -11 92 3 3 7 12 9 23 4
17 -6 17 -9 5 -17 -11 -8 -12 -12 -2 -16 6 -2 9 -9 6 -14 -3 -6 1 -18 10 -28
16 -18 42 -21 64 -7 6 4 17 4 23 1 5 -4 22 -8 37 -10 14 -1 28 -8 30 -14 2 -6
10 -11 18 -11 9 0 13 4 9 9 -3 6 5 15 17 22 28 15 53 40 53 52 0 6 6 12 13 15
9 3 13 -3 12 -14 -1 -11 -2 -24 -1 -30 2 -17 44 -25 53 -11 4 7 23 12 42 12
33 0 36 -3 67 -70 17 -38 36 -81 42 -95 5 -14 13 -32 16 -40 4 -8 9 -39 10
-68 2 -56 0 -59 -58 -65 -41 -4 -53 -24 -19 -32 74 -17 159 -20 293 -11 133 8
154 11 167 24 15 15 -1 20 -67 24 l-50 3 -17 51 c-12 38 -30 154 -23 154 0 0
15 -4 33 -9 25 -8 32 -7 32 5 0 21 27 17 33 -6 11 -42 87 -6 79 38 -3 15 3 15
29 1 11 -5 17 -14 14 -18 -2 -5 2 -15 11 -22 10 -8 18 -9 22 -2 4 6 17 13 30
17 12 4 23 13 23 19 1 7 2 19 3 27 0 8 11 15 26 15 20 0 25 5 25 25 0 15 7 26
18 28 9 2 17 10 17 18 0 27 45 12 48 -15 5 -33 25 -51 56 -51 19 0 26 -5 26
-20 0 -16 7 -20 38 -20 26 0 41 6 49 19 7 11 26 22 43 26 16 4 30 11 30 16 0
5 6 9 14 9 19 0 32 40 16 50 -21 13 -1 49 41 76 22 13 44 22 49 19 11 -7 2
-34 -22 -59 -22 -24 -23 -36 -4 -36 7 0 20 -9 27 -21 18 -26 136 -41 126 -16
-3 8 2 25 11 38 9 13 15 34 14 46 -2 16 2 23 13 23 12 0 14 4 7 16 -11 20 -3
64 12 64 6 0 23 11 38 25 16 14 33 22 42 19 9 -3 16 -1 16 5 0 6 7 8 15 5 10
-4 15 0 16 12 3 50 9 77 19 89 7 8 9 18 7 23 -3 4 -2 14 3 22 6 9 2 24 -11 42
-16 21 -19 37 -14 69 5 30 2 44 -7 50 -21 14 -38 10 -38 -7 0 -11 -6 -14 -20
-9 -16 5 -20 2 -20 -15 0 -13 -5 -20 -12 -17 -7 2 -12 10 -10 16 1 6 -4 11
-10 11 -10 0 -10 2 0 8 9 6 10 16 4 33 -11 29 -5 82 12 122 9 20 0 51 -13 43
-14 -9 -19 40 -6 58 15 20 7 66 -11 66 -8 0 -14 7 -14 15 0 24 -32 36 -46 17
-7 -10 -16 -14 -20 -10 -4 4 -2 13 3 20 11 14 14 44 7 68 -4 12 -10 9 -24 -10
-15 -19 -20 -21 -20 -8 0 19 -37 35 -51 21 -5 -5 -10 -19 -12 -32 -2 -14 -11
-25 -21 -27 -13 -2 -15 2 -10 19 4 12 10 24 13 27 4 3 8 16 8 29 2 30 -19 52
-38 40 -8 -5 -11 -9 -7 -9 16 0 -36 -49 -65 -61 -26 -11 -31 -10 -44 6 -7 11
-11 26 -8 33 10 27 -6 30 -32 6 -32 -29 -43 -30 -43 -4 0 13 -7 20 -18 20 -10
0 -24 6 -31 13 -10 10 -15 9 -24 -4 -7 -8 -20 -18 -29 -22 -21 -8 -64 6 -60
19 6 16 -43 21 -65 6 -17 -11 -21 -20 -17 -38 5 -18 2 -24 -11 -24 -13 0 -16
6 -12 25 3 16 -2 34 -14 48 -10 12 -18 17 -19 11 0 -15 -70 -10 -80 6 -12 20
-80 -25 -73 -48 2 -10 -3 -24 -11 -31 -9 -8 -16 -19 -16 -25 0 -18 -21 -35
-36 -29 -9 3 -11 11 -6 21 6 15 8 47 2 62 -1 3 -3 19 -4 37 -3 28 -25 63 -40
63 -3 0 -9 -15 -14 -32 -9 -37 -40 -50 -54 -24 -5 9 -21 16 -35 16 -21 0 -23
2 -13 15 7 9 9 22 4 32 -4 10 -8 20 -9 23 -9 35 -21 58 -36 73 -22 20 -29 21
-29 5 0 -7 -13 -21 -30 -30 l-29 -16 -11 33 c-13 41 -36 52 -44 22 -7 -26 -23
-13 -28 23 -2 14 -9 24 -16 23 -6 -2 -12 1 -12 5 0 17 -45 29 -75 21 -16 -5
-37 -6 -46 -4 -9 3 -24 -2 -33 -10 -9 -9 -16 -12 -16 -6 0 18 -29 12 -50 -9
l-21 -21 -27 29 c-26 27 -28 28 -44 11z m630 -1155 c9 -18 9 -31 1 -45 -14
-27 -23 -17 -25 31 -2 46 8 51 24 14z"/>
<path d="M1800 1720 c0 -5 5 -10 10 -10 6 0 10 5 10 10 0 6 -4 10 -10 10 -5 0
-10 -4 -10 -10z"/>
</g>
</svg>
